<svg width="30" height="30" viewBox="0 0 30 30" fill="none" xmlns="http://www.w3.org/2000/svg">
<path d="M24.7499 10.0065C24.9239 10.0065 25.0844 10.0665 25.2119 10.167L25.3124 10.2615L25.3379 10.2915C26.2094 11.3716 26.7641 12.6723 26.9403 14.0489C27.1164 15.4255 26.9072 16.8239 26.3359 18.0887C25.7645 19.3534 24.8534 20.4349 23.704 21.2126C22.5546 21.9904 21.212 22.4339 19.8254 22.494L19.4999 22.5H10.4999C10.3483 22.5 10.1968 22.4955 10.0454 22.4865L12.5309 24.969C12.6549 25.0933 12.7314 25.2571 12.747 25.432C12.7627 25.6069 12.7164 25.7817 12.6164 25.926L12.5309 26.031C12.4066 26.155 12.2428 26.2315 12.0679 26.2471C11.893 26.2627 11.7182 26.2165 11.5739 26.1165L11.4689 26.031L7.71893 22.281C7.59492 22.1567 7.51844 21.9928 7.50281 21.818C7.48719 21.6431 7.53341 21.4683 7.63343 21.324L7.71893 21.219L11.4689 17.469C11.6012 17.3361 11.7785 17.2576 11.9658 17.2489C12.1531 17.2402 12.3368 17.302 12.4808 17.4221C12.6248 17.5422 12.7186 17.7119 12.7437 17.8977C12.7688 18.0835 12.7234 18.272 12.6164 18.426L12.5309 18.531L10.0754 20.985L10.2854 20.997L10.4999 21H19.4999C20.633 21.0001 21.7429 20.6793 22.7013 20.0749C23.6597 19.4704 24.4273 18.607 24.9154 17.5844C25.4034 16.5618 25.5919 15.422 25.4591 14.2967C25.3263 13.1715 24.8776 12.1068 24.1649 11.226C24.0769 11.1157 24.0217 10.9828 24.0058 10.8426C23.9899 10.7023 24.0138 10.5605 24.0749 10.4333C24.136 10.306 24.2318 10.1987 24.3512 10.1234C24.4706 10.0482 24.6088 10.0082 24.7499 10.008V10.0065ZM17.4689 3.96897C17.5932 3.84496 17.7571 3.76848 17.9319 3.75285C18.1068 3.73723 18.2816 3.78345 18.4259 3.88347L18.5309 3.96897L22.2809 7.71897L22.3664 7.82397C22.4529 7.94922 22.4992 8.09779 22.4992 8.24997C22.4992 8.40215 22.4529 8.55072 22.3664 8.67597L22.2809 8.78097L18.5309 12.531L18.4259 12.6165C18.3007 12.7029 18.1521 12.7492 17.9999 12.7492C17.8478 12.7492 17.6992 12.7029 17.5739 12.6165L17.4689 12.531L17.3834 12.426C17.297 12.3007 17.2507 12.1521 17.2507 12C17.2507 11.8478 17.297 11.6992 17.3834 11.574L17.4689 11.469L19.9244 9.01497L19.7144 9.00297L19.4999 8.99997H10.4999C9.3659 8.9999 8.25507 9.32122 7.29618 9.92667C6.3373 10.5321 5.56964 11.3969 5.08217 12.4209C4.59471 13.4448 4.4074 14.5859 4.54195 15.7119C4.67651 16.8379 5.12742 17.9027 5.84243 18.783C5.96198 18.9423 6.01333 19.1426 5.9852 19.3398C5.95707 19.537 5.85176 19.7149 5.69243 19.8345C5.61354 19.8937 5.52376 19.9367 5.42822 19.9612C5.33268 19.9857 5.23326 19.9912 5.13562 19.9772C4.93842 19.9491 4.76048 19.8438 4.64093 19.6845C3.77547 18.6027 3.22653 17.3024 3.05498 15.9278C2.88343 14.5531 3.09598 13.1578 3.66905 11.8965C4.24212 10.6353 5.15332 9.55738 6.3016 8.78239C7.44988 8.00741 8.79038 7.5656 10.1744 7.50597L10.4999 7.49997H19.4999C19.6529 7.49997 19.8044 7.50447 19.9544 7.51347L17.4689 5.03097L17.3834 4.92597C17.2834 4.78167 17.2372 4.60686 17.2528 4.43198C17.2684 4.25711 17.3449 4.09325 17.4689 3.96897Z" fill="#F6F6F6" fill-opacity="0.5"/>
</svg>
