<svg width="38" height="39" viewBox="0 0 38 39" fill="none" xmlns="http://www.w3.org/2000/svg">
<path d="M14.1303 1.00503L9.89034 8.29915L17.2342 12.5104M4.73676 17.6142C4.22972 20.7729 4.824 24.0089 6.4212 26.7864C8.01841 29.5639 10.5228 31.7164 13.5196 32.8874C16.5165 34.0584 19.8261 34.1777 22.9005 33.2256C25.975 32.2735 28.6299 30.3071 30.4256 27.6519C32.2214 24.9968 33.0503 21.8121 32.7752 18.6251C32.5001 15.4382 31.1374 12.4402 28.9128 10.1274C26.6882 7.81459 23.735 6.32576 20.5423 5.90739C17.3495 5.48902 14.1086 6.1662 11.3562 7.82681" stroke="#3A3A55" stroke-width="2" stroke-linecap="round" stroke-linejoin="round"/>
<path d="M14.5776 16.1623H15.5972V24.5647H14.2788V18.2072H12.7788V17.3049C13.2827 17.2502 13.6655 17.1311 13.9272 16.9475C14.1929 16.76 14.4097 16.4983 14.5776 16.1623ZM20.8765 18.9865C21.7163 18.9865 22.4058 19.2522 22.9448 19.7834C23.4839 20.3147 23.7534 20.9885 23.7534 21.8049C23.7534 22.6526 23.478 23.344 22.9272 23.8791C22.3765 24.4143 21.6519 24.6819 20.7534 24.6819C20.3706 24.6819 20.0073 24.6369 19.6636 24.5471C19.3198 24.4533 19.0347 24.344 18.8081 24.219C18.5854 24.0901 18.3921 23.9612 18.228 23.8322C18.064 23.7033 17.9468 23.5959 17.8765 23.51L17.7534 23.3635L18.5972 22.5256C18.6128 22.549 18.6401 22.5842 18.6792 22.6311C18.7183 22.674 18.8062 22.7522 18.9429 22.8654C19.0796 22.9748 19.2241 23.0725 19.3765 23.1584C19.5288 23.2404 19.728 23.3166 19.9741 23.3869C20.2241 23.4533 20.4839 23.4865 20.7534 23.4865C21.2339 23.4865 21.6343 23.3264 21.9546 23.0061C22.2749 22.6858 22.4351 22.2854 22.4351 21.8049C22.4351 21.3244 22.2749 20.924 21.9546 20.6037C21.6343 20.2834 21.2339 20.1233 20.7534 20.1233C20.4019 20.1233 20.0854 20.1877 19.8042 20.3166C19.5269 20.4455 19.3354 20.5744 19.23 20.7033L19.0776 20.9026H18.1167L18.3569 16.1623H23.2144V17.3635H19.5581L19.4351 19.344C19.7554 19.1057 20.2358 18.9865 20.8765 18.9865Z" fill="#3A3A55"/>
</svg>
