<svg width="38" height="36" viewBox="0 0 38 36" fill="none" xmlns="http://www.w3.org/2000/svg">
<path fill-rule="evenodd" clip-rule="evenodd" d="M23.3043 6.03758C24.8692 6.63667 25.348 8.72307 25.988 9.3937C26.6279 10.0643 27.5436 10.2923 28.0503 10.2923C30.7433 10.2923 32.9265 12.3922 32.9265 14.9808V23.617C32.9265 27.0894 29.998 29.906 26.3877 29.906H10.8C7.18819 29.906 4.26123 27.0894 4.26123 23.617V14.9808C4.26123 12.3922 6.44444 10.2923 9.13743 10.2923C9.64255 10.2923 10.5583 10.0643 11.1998 9.3937C11.8397 8.72307 12.3169 6.63667 13.8819 6.03758C15.4484 5.43848 21.7393 5.43848 23.3043 6.03758Z" stroke="#3A3A55" stroke-opacity="0.8" stroke-width="1.5" stroke-linecap="round" stroke-linejoin="round"/>
<path d="M27.1088 14.1577H27.1228" stroke="#3A3A55" stroke-opacity="0.8" stroke-width="2" stroke-linecap="round" stroke-linejoin="round"/>
<path fill-rule="evenodd" clip-rule="evenodd" d="M23.5193 19.5645C23.5193 16.9476 21.3144 14.8269 18.5935 14.8269C15.8726 14.8269 13.6677 16.9476 13.6677 19.5645C13.6677 22.1815 15.8726 24.3021 18.5935 24.3021C21.3144 24.3021 23.5193 22.1815 23.5193 19.5645Z" stroke="#3A3A55" stroke-opacity="0.8" stroke-width="1.5" stroke-linecap="round" stroke-linejoin="round"/>
</svg>
