<svg width="24" height="26" viewBox="0 0 24 26" fill="none" xmlns="http://www.w3.org/2000/svg">
<path d="M21.1557 9.83514C21.1557 9.83514 20.477 18.2539 20.0832 21.8001C19.8957 23.4939 18.8495 24.4864 17.1357 24.5176C13.8745 24.5764 10.6095 24.5801 7.34949 24.5114C5.70074 24.4776 4.67199 23.4726 4.48824 21.8089C4.09199 18.2314 3.41699 9.83514 3.41699 9.83514" stroke="#5F5F75" stroke-width="1.5" stroke-linecap="round" stroke-linejoin="round"/>
<path d="M22.885 5.79951H1.6875" stroke="#5F5F75" stroke-width="1.5" stroke-linecap="round" stroke-linejoin="round"/>
<path d="M18.8007 5.79957C17.8195 5.79957 16.9745 5.10582 16.782 4.14457L16.4782 2.62457C16.2907 1.92332 15.6557 1.43832 14.932 1.43832H9.64072C8.91697 1.43832 8.28197 1.92332 8.09447 2.62457L7.79072 4.14457C7.59822 5.10582 6.75322 5.79957 5.77197 5.79957" stroke="#5F5F75" stroke-width="1.5" stroke-linecap="round" stroke-linejoin="round"/>
</svg>
