<svg width="20" height="20" viewBox="0 0 20 20" fill="none" xmlns="http://www.w3.org/2000/svg">
<path d="M18.0937 6.90611C17.2732 6.08567 16.1604 5.62475 15.0001 5.62475C13.8398 5.62475 12.727 6.08567 11.9065 6.90611L10.0093 8.8033L8.1119 6.90592C7.50005 6.29407 6.7205 5.87739 5.87183 5.70858C5.02316 5.53977 4.1435 5.62641 3.34407 5.95754C2.54464 6.28867 1.86136 6.84943 1.38063 7.56889C0.8999 8.28836 0.643311 9.13422 0.643311 9.99951C0.643311 10.8648 0.8999 11.7107 1.38063 12.4301C1.86136 13.1496 2.54464 13.7104 3.34407 14.0415C4.1435 14.3726 5.02316 14.4593 5.87183 14.2904C6.7205 14.1216 7.50005 13.705 8.1119 13.0931L10.0091 11.1959L11.9064 13.0931C12.3121 13.5016 12.7945 13.8261 13.3259 14.0478C13.8573 14.2695 14.4272 14.3841 15.003 14.3851C15.5788 14.3861 16.1491 14.2735 16.6812 14.0536C17.2134 13.8337 17.6969 13.511 18.1041 13.1038C18.5112 12.6967 18.834 12.2132 19.0539 11.681C19.2738 11.1489 19.3865 10.5786 19.3855 10.0028C19.3846 9.42702 19.27 8.85709 19.0483 8.32569C18.8266 7.79429 18.5022 7.31188 18.0937 6.90611ZM7.22803 12.2094C6.79099 12.6464 6.23417 12.9441 5.62798 13.0646C5.02179 13.1852 4.39346 13.1233 3.82245 12.8868C3.25143 12.6503 2.76337 12.2497 2.42 11.7358C2.07662 11.2219 1.89334 10.6177 1.89334 9.99967C1.89334 9.38161 2.07662 8.77742 2.42 8.26352C2.76337 7.74962 3.25143 7.34908 3.82245 7.11255C4.39346 6.87603 5.02179 6.81414 5.62798 6.93471C6.23417 7.05529 6.79099 7.35291 7.22803 7.78994L9.38428 9.94619V10.0535L7.22803 12.2094ZM17.2096 12.2094C16.6235 12.7954 15.8287 13.1247 14.9999 13.1247C14.1711 13.1247 13.3763 12.7954 12.7902 12.2094L10.634 10.0531V9.94596L12.7902 7.78971C13.0804 7.49953 13.4249 7.26935 13.8041 7.11231C14.1833 6.95528 14.5896 6.87446 15 6.87447C15.4104 6.87449 15.8168 6.95533 16.1959 7.1124C16.5751 7.26946 16.9196 7.49966 17.2098 7.78987C17.4999 8.08007 17.7301 8.42458 17.8871 8.80374C18.0442 9.1829 18.125 9.58927 18.125 9.99966C18.125 10.4101 18.0441 10.8164 17.8871 11.1956C17.73 11.5747 17.4998 11.9192 17.2096 12.2094Z" fill="#3A3A55"/>
</svg>
