<svg width="25" height="24" viewBox="0 0 25 24" fill="none" xmlns="http://www.w3.org/2000/svg">
<path d="M18.5496 4.24561C19.0242 4.24561 19.4164 4.5983 19.4785 5.05589L19.4871 5.18311V22.2053C19.4871 22.7231 19.0673 23.1428 18.5496 23.1428C18.0749 23.1428 17.6827 22.7901 17.6206 22.3325L17.6121 22.2053V5.18311C17.6121 4.66534 18.0318 4.24561 18.5496 4.24561Z" fill="#5F5F75"/>
<path d="M22.9821 16.4238C23.3474 16.0569 23.941 16.0555 24.308 16.4208C24.6416 16.7528 24.673 17.2736 24.4016 17.6412L24.311 17.7466L19.2138 22.8674C18.8807 23.2021 18.3579 23.2325 17.9902 22.9587L17.8849 22.8674L12.7877 17.7466C12.4224 17.3796 12.4238 16.786 12.7908 16.4208C13.1244 16.0887 13.6453 16.0596 14.0117 16.3328L14.1166 16.4238L18.5488 20.8763L22.9821 16.4238Z" fill="#5F5F75"/>
<path d="M6.13892 0.85376C6.61354 0.85376 7.00578 1.20645 7.06786 1.66405L7.07642 1.79126V18.8135C7.07642 19.3312 6.65668 19.751 6.13892 19.751C5.6643 19.751 5.27205 19.3983 5.20997 18.9407L5.20142 18.8135V1.79126C5.20142 1.27349 5.62115 0.85376 6.13892 0.85376Z" fill="#5F5F75"/>
<path d="M5.47465 1.12915C5.8078 0.794456 6.33061 0.76403 6.69825 1.03787L6.80354 1.12915L11.9008 6.24998C12.266 6.61694 12.2647 7.21053 11.8977 7.5758C11.5641 7.90787 11.0432 7.93692 10.6768 7.66376L10.5719 7.57274L6.13881 3.11886L1.70631 7.57274C1.37425 7.90634 0.853491 7.9378 0.485849 7.66633L0.380491 7.5758C0.0468897 7.24374 0.0154287 6.72298 0.286898 6.35534L0.377427 6.24998L5.47465 1.12915Z" fill="#5F5F75"/>
</svg>
