<svg width="38" height="39" viewBox="0 0 38 39" fill="none" xmlns="http://www.w3.org/2000/svg">
<path d="M23.8697 1.00503L28.1097 8.29915L20.7658 12.5104M33.2632 17.6142C33.7703 20.7729 33.176 24.0089 31.5788 26.7864C29.9816 29.5639 27.4772 31.7164 24.4804 32.8874C21.4835 34.0584 18.1739 34.1777 15.0995 33.2256C12.025 32.2735 9.37015 30.3071 7.57438 27.6519C5.77862 24.9968 4.94967 21.8121 5.22479 18.6251C5.4999 15.4382 6.86258 12.4402 9.08721 10.1274C11.3118 7.81459 14.265 6.32576 17.4577 5.90739C20.6505 5.48902 23.8914 6.1662 26.6438 7.82681" stroke="#3A3A55" stroke-width="2" stroke-linecap="round" stroke-linejoin="round"/>
<path d="M14.7559 16.1623H15.7754V24.5647H14.457V18.2072H12.957V17.3049C13.4609 17.2502 13.8438 17.1311 14.1055 16.9475C14.3711 16.76 14.5879 16.4983 14.7559 16.1623ZM21.0547 18.9865C21.8945 18.9865 22.584 19.2522 23.123 19.7834C23.6621 20.3147 23.9316 20.9885 23.9316 21.8049C23.9316 22.6526 23.6562 23.344 23.1055 23.8791C22.5547 24.4143 21.8301 24.6819 20.9316 24.6819C20.5488 24.6819 20.1855 24.6369 19.8418 24.5471C19.498 24.4533 19.2129 24.344 18.9863 24.219C18.7637 24.0901 18.5703 23.9612 18.4062 23.8322C18.2422 23.7033 18.125 23.5959 18.0547 23.51L17.9316 23.3635L18.7754 22.5256C18.791 22.549 18.8184 22.5842 18.8574 22.6311C18.8965 22.674 18.9844 22.7522 19.1211 22.8654C19.2578 22.9748 19.4023 23.0725 19.5547 23.1584C19.707 23.2404 19.9062 23.3166 20.1523 23.3869C20.4023 23.4533 20.6621 23.4865 20.9316 23.4865C21.4121 23.4865 21.8125 23.3264 22.1328 23.0061C22.4531 22.6858 22.6133 22.2854 22.6133 21.8049C22.6133 21.3244 22.4531 20.924 22.1328 20.6037C21.8125 20.2834 21.4121 20.1233 20.9316 20.1233C20.5801 20.1233 20.2637 20.1877 19.9824 20.3166C19.7051 20.4455 19.5137 20.5744 19.4082 20.7033L19.2559 20.9026H18.2949L18.5352 16.1623H23.3926V17.3635H19.7363L19.6133 19.344C19.9336 19.1057 20.4141 18.9865 21.0547 18.9865Z" fill="#3A3A55"/>
</svg>
