<svg width="27" height="25" viewBox="0 0 27 25" fill="none" xmlns="http://www.w3.org/2000/svg">
<path fill-rule="evenodd" clip-rule="evenodd" d="M25.361 16.8696H20.301C17.9298 16.8696 15.9998 14.9408 15.9985 12.5708C15.9985 10.1983 17.9285 8.26834 20.301 8.26709H25.361C25.8785 8.26709 26.2985 8.68709 26.2985 9.20459C26.2985 9.72209 25.8785 10.1421 25.361 10.1421H20.301C18.9623 10.1433 17.8735 11.2321 17.8735 12.5696C17.8735 13.9058 18.9635 14.9946 20.301 14.9946H25.361C25.8785 14.9946 26.2985 15.4146 26.2985 15.9321C26.2985 16.4496 25.8785 16.8696 25.361 16.8696Z" fill="#3A3A55"/>
<path fill-rule="evenodd" clip-rule="evenodd" d="M20.8729 13.4294H20.4829C19.9654 13.4294 19.5454 13.0094 19.5454 12.4919C19.5454 11.9744 19.9654 11.5544 20.4829 11.5544H20.8729C21.3904 11.5544 21.8104 11.9744 21.8104 12.4919C21.8104 13.0094 21.3904 13.4294 20.8729 13.4294Z" fill="#3A3A55"/>
<mask id="mask0" mask-type="alpha" maskUnits="userSpaceOnUse" x="0" y="0" width="27" height="25">
<path fill-rule="evenodd" clip-rule="evenodd" d="M0.5 0.75H26.2982V24.7161H0.5V0.75Z" fill="white"/>
</mask>
<g mask="url(#mask0)">
<path fill-rule="evenodd" clip-rule="evenodd" d="M7.99701 2.625C4.89701 2.625 2.37451 5.1475 2.37451 8.2475V17.2188C2.37451 20.3188 4.89701 22.8413 7.99701 22.8413H18.802C21.902 22.8413 24.4233 20.3188 24.4233 17.2188V8.2475C24.4233 5.1475 21.902 2.625 18.802 2.625H7.99701ZM18.802 24.7163H7.99701C3.86326 24.7163 0.499512 21.3525 0.499512 17.2188V8.2475C0.499512 4.1125 3.86326 0.75 7.99701 0.75H18.802C22.9358 0.75 26.2983 4.1125 26.2983 8.2475V17.2188C26.2983 21.3525 22.9358 24.7163 18.802 24.7163Z" fill="#3A3A55"/>
</g>
<path fill-rule="evenodd" clip-rule="evenodd" d="M13.8557 8.29761H7.10693C6.58943 8.29761 6.16943 7.87761 6.16943 7.36011C6.16943 6.84261 6.58943 6.42261 7.10693 6.42261H13.8557C14.3732 6.42261 14.7932 6.84261 14.7932 7.36011C14.7932 7.87761 14.3732 8.29761 13.8557 8.29761Z" fill="#3A3A55"/>
</svg>
